<svg width="313" height="64" viewBox="0 0 313 64" fill="none" xmlns="http://www.w3.org/2000/svg">
<path d="M119.264 50V14.48H126.656V29.504L139.376 14.48H148.496L133.664 31.52L149.024 50H139.568L126.656 34.208V50H119.264ZM158.463 21.104C157.183 21.104 156.143 20.704 155.343 19.904C154.543 19.072 154.143 18.096 154.143 16.976C154.143 15.792 154.543 14.8 155.343 14C156.143 13.168 157.183 12.752 158.463 12.752C159.679 12.752 160.703 13.168 161.535 14C162.367 14.8 162.783 15.792 162.783 16.976C162.783 18.096 162.367 19.072 161.535 19.904C160.703 20.704 159.679 21.104 158.463 21.104ZM154.815 50V24.56H162.111V50H154.815ZM181.203 50.48C179.219 50.48 177.635 50.192 176.451 49.616C175.267 49.008 174.371 48.256 173.763 47.36C173.155 46.432 172.755 45.456 172.562 44.432C172.371 43.408 172.275 42.464 172.275 41.6V30.368H167.955V24.56H172.275V18.272H179.571V24.56H184.995V30.368H179.571V41.408C179.571 42.464 179.843 43.28 180.387 43.856C180.963 44.432 181.907 44.72 183.219 44.72C183.795 44.72 184.323 44.672 184.803 44.576C185.283 44.48 185.523 44.432 185.523 44.432V50.048C185.523 50.048 185.091 50.112 184.227 50.24C183.363 50.4 182.355 50.48 181.203 50.48ZM202.097 50.48C199.985 50.48 198.241 50.192 196.865 49.616C195.489 49.04 194.385 48.336 193.553 47.504C192.753 46.64 192.145 45.792 191.729 44.96C191.345 44.096 191.089 43.376 190.961 42.8C190.865 42.224 190.817 41.936 190.817 41.936H197.585C197.585 41.936 197.633 42.096 197.729 42.416C197.825 42.736 198.033 43.104 198.353 43.52C198.705 43.936 199.201 44.304 199.841 44.624C200.481 44.944 201.345 45.104 202.433 45.104C203.777 45.104 204.689 44.832 205.169 44.288C205.681 43.744 205.937 43.2 205.937 42.656C205.937 41.504 204.993 40.736 203.105 40.352L199.649 39.68C198.177 39.392 196.785 38.976 195.473 38.432C194.193 37.856 193.153 37.072 192.353 36.08C191.585 35.056 191.201 33.744 191.201 32.144C191.201 30.608 191.601 29.232 192.401 28.016C193.201 26.8 194.337 25.84 195.809 25.136C197.313 24.432 199.105 24.08 201.185 24.08C203.137 24.08 204.753 24.352 206.033 24.896C207.345 25.408 208.385 26.064 209.153 26.864C209.921 27.632 210.497 28.416 210.881 29.216C211.265 29.984 211.505 30.64 211.601 31.184C211.729 31.696 211.793 31.952 211.793 31.952H205.265C205.265 31.952 205.169 31.744 204.977 31.328C204.785 30.88 204.385 30.448 203.777 30.032C203.201 29.584 202.305 29.36 201.089 29.36C199.841 29.36 198.977 29.616 198.497 30.128C198.017 30.608 197.777 31.12 197.777 31.664C197.777 32.304 198.049 32.784 198.593 33.104C199.169 33.424 199.905 33.68 200.801 33.872L204.113 34.544C206.545 35.024 208.545 35.872 210.113 37.088C211.681 38.272 212.465 40 212.465 42.272C212.465 43.808 212.065 45.2 211.265 46.448C210.465 47.696 209.297 48.688 207.761 49.424C206.225 50.128 204.337 50.48 202.097 50.48ZM229.562 50.48C227.578 50.48 225.994 50.192 224.81 49.616C223.626 49.008 222.73 48.256 222.122 47.36C221.514 46.432 221.114 45.456 220.922 44.432C220.73 43.408 220.634 42.464 220.634 41.6V30.368H216.314V24.56H220.634V18.272H227.93V24.56H233.354V30.368H227.93V41.408C227.93 42.464 228.202 43.28 228.746 43.856C229.322 44.432 230.266 44.72 231.578 44.72C232.154 44.72 232.682 44.672 233.162 44.576C233.642 44.48 233.882 44.432 233.882 44.432V50.048C233.882 50.048 233.45 50.112 232.586 50.24C231.722 50.4 230.714 50.48 229.562 50.48ZM250.226 24.08C251.858 24.08 253.202 24.352 254.258 24.896C255.314 25.408 256.114 25.968 256.658 26.576C257.234 27.184 257.586 27.6 257.714 27.824H258.098V24.56H265.394V50H258.098V46.736H257.714C257.586 46.96 257.234 47.376 256.658 47.984C256.114 48.592 255.314 49.168 254.258 49.712C253.202 50.224 251.858 50.48 250.226 50.48C248.338 50.48 246.69 50.112 245.282 49.376C243.906 48.608 242.754 47.6 241.826 46.352C240.898 45.072 240.194 43.648 239.714 42.08C239.266 40.512 239.042 38.912 239.042 37.28C239.042 35.648 239.266 34.048 239.714 32.48C240.194 30.912 240.898 29.504 241.826 28.256C242.754 26.976 243.906 25.968 245.282 25.232C246.69 24.464 248.338 24.08 250.226 24.08ZM252.338 29.984C251.026 29.984 249.922 30.352 249.026 31.088C248.162 31.792 247.506 32.704 247.058 33.824C246.642 34.944 246.434 36.096 246.434 37.28C246.434 38.464 246.642 39.616 247.058 40.736C247.506 41.856 248.162 42.784 249.026 43.52C249.922 44.224 251.026 44.576 252.338 44.576C253.65 44.576 254.738 44.224 255.602 43.52C256.498 42.784 257.154 41.856 257.57 40.736C258.018 39.616 258.242 38.464 258.242 37.28C258.242 36.096 258.018 34.944 257.57 33.824C257.154 32.704 256.498 31.792 255.602 31.088C254.738 30.352 253.65 29.984 252.338 29.984ZM271.972 50V24.56H279.22V28.256H279.46C279.748 27.584 280.148 26.928 280.66 26.288C281.172 25.648 281.876 25.12 282.772 24.704C283.668 24.288 284.82 24.08 286.228 24.08C286.932 24.08 287.492 24.128 287.908 24.224C288.324 24.288 288.532 24.32 288.532 24.32V31.52C288.532 31.52 288.292 31.472 287.812 31.376C287.364 31.28 286.772 31.232 286.036 31.232C283.764 31.232 282.068 31.856 280.948 33.104C279.828 34.32 279.268 36.32 279.268 39.104V50H271.972ZM305.687 50.48C303.703 50.48 302.119 50.192 300.935 49.616C299.751 49.008 298.855 48.256 298.247 47.36C297.639 46.432 297.239 45.456 297.047 44.432C296.855 43.408 296.759 42.464 296.759 41.6V30.368H292.439V24.56H296.759V18.272H304.055V24.56H309.479V30.368H304.055V41.408C304.055 42.464 304.327 43.28 304.871 43.856C305.447 44.432 306.391 44.72 307.703 44.72C308.279 44.72 308.807 44.672 309.287 44.576C309.767 44.48 310.007 44.432 310.007 44.432V50.048C310.007 50.048 309.575 50.112 308.711 50.24C307.847 50.4 306.839 50.48 305.687 50.48Z" fill="#170F49"/>
<path d="M31 55.75C31 55.041 31.5371 54.3428 32.6113 53.8057C34.7598 52.7314 38.2402 52.7314 40.3887 53.8057L47.5 57.3613L54.6113 53.8057C56.7598 52.7314 60.2402 52.7314 62.3887 53.8057C64.5371 54.8799 64.5371 56.6201 62.3887 57.6943L51.3887 63.1943C49.2402 64.2686 45.7598 64.2686 43.6113 63.1943L32.6113 57.6943C31.5371 57.1572 31 56.459 31 55.75Z" fill="#4A3AFF"/>
<path d="M15 47C13.7109 47 12.4414 46.7559 11.4648 46.2676L1.46484 41.2676C-0.488281 40.291 -0.488281 38.709 1.46484 37.7324L11.4648 32.7324C13.418 31.7559 16.582 31.7559 18.5352 32.7324C20.4883 33.709 20.4883 35.291 18.5352 36.2676L12.0703 39.5L18.5352 42.7324C20.4883 43.709 20.4883 45.291 18.5352 46.2676C17.5586 46.7559 16.2891 47 15 47Z" fill="#4A3AFF"/>
<path d="M79 47C80.2891 47 81.5586 46.7559 82.5352 46.2676L92.5352 41.2676C94.4883 40.291 94.4883 38.709 92.5352 37.7324L82.5352 32.7324C80.582 31.7559 77.418 31.7559 75.4648 32.7324C73.5117 33.709 73.5117 35.291 75.4648 36.2676L81.9297 39.5L75.4648 42.7324C73.5117 43.709 73.5117 45.291 75.4648 46.2676C76.4414 46.7559 77.7109 47 79 47Z" fill="#4A3AFF"/>
<mask id="mask0_1704_12" style="mask-type:alpha" maskUnits="userSpaceOnUse" x="23" y="0" width="49" height="53">
<path d="M42.4512 1.21978C45.2682 -0.406591 48.7388 -0.406593 51.5558 1.21977L66.4548 9.82171C69.2717 11.4481 71.007 14.4537 71.007 17.7065V34.9103C71.007 38.1631 69.2717 41.1687 66.4548 42.7951L51.5558 51.397C48.7388 53.0234 45.2682 53.0234 42.4513 51.397L27.5523 42.7951C24.7353 41.1687 23 38.1631 23 34.9103V17.7065C23 14.4537 24.7353 11.4481 27.5523 9.82171L42.4512 1.21978Z" fill="#C4C4C4"/>
</mask>
<g mask="url(#mask0_1704_12)">
<rect width="30.3817" height="30.3817" transform="matrix(0.866025 0.5 -0.866025 0.5 47.0039 -1.86035)" fill="#4A3AFF"/>
<rect width="27.9554" height="27.9554" transform="matrix(0.866025 0.5 -2.20305e-08 1 22.793 13.5503)" fill="#4CBFFF"/>
<rect width="27.9554" height="27.9554" transform="matrix(0.866025 -0.5 2.20305e-08 1 47.0039 27.5317)" fill="#9328FF"/>
</g>
</svg>
